# xmcd CD database file
#
# Track frame offsets:
#	150
#	10176
#	16676
#	21390
#	26368
#	33786
#	46227
#	52953
#	61378
#	73213
#	79212
#	87770
#	99354
#	107586
#	115906
#	124731
#	132244
#	143167
#	151182
#	162898
#	173661
#	181306
#	190370
#	201078
#	215267
#	227526
#	236296
#	245990
#	258033
#	268216
#	287403
#	295911
#	309965
#	319928
#	332368
#	340569
#	353871
#
# Disc length: 4801 seconds
#
# Revision: 0
# Processed by: cddbd v1.5.2PL0 Copyright (c) Steve Scherf et al.
# Submitted via: CDex 1.51
#
DISCID=f512bf25
DTITLE=Charlie Rich - The Complete Sun Masters Disc 2
DYEAR=2009
DGENRE=Country
TTITLE0=My Baby Done Left Me
TTITLE1=Charlie's Boogie
TTITLE2=Blue Suede Shoes
TTITLE3=Juicehead Baby
TTITLE4=Baby, I Need You
TTITLE5=Oh, Lonely Days
TTITLE6=Portrait Of My Love
TTITLE7=Seven Dreams
TTITLE8=Waiting All Alone
TTITLE9=The Ways Of A Woman In Love
TTITLE10=Thanks A Lot
TTITLE11=It Hurt Me So
TTITLE12=Donna Lee
TTITLE13=Never Mind Little Girl
TTITLE14=I Love No One But You
TTITLE15=Deep Freeze
TTITLE16=Popcorn Baby
TTITLE17=Give In
TTITLE18=Those Places Round Town
TTITLE19=Sail Away
TTITLE20=Am I To Be The One
TTITLE21=Jeannie With The Light Brown Hair
TTITLE22=Unchained Melody
TTITLE23=I've Lost My Heart To You
TTITLE24=My Heart Cries For You
TTITLE25=Right Behind You Baby
TTITLE26=The Lonliest Days
TTITLE27=Lonely Hurt Within
TTITLE28=Now Everybody Knows
TTITLE29=Don't Put No Headstone On My Grave
TTITLE30=That's Rich
TTITLE31=Time And Again
TTITLE32=Goodbye, Mary Ann
TTITLE33=Gentle As A Lamb
TTITLE34=Rock and Roll Party
TTITLE35=You Never Knew About Love
TTITLE36=Lonely Weekends
EXTD=YEAR: 2009
EXTT0=
EXTT1=
EXTT2=
EXTT3=
EXTT4=
EXTT5=
EXTT6=
EXTT7=
EXTT8=
EXTT9=
EXTT10=
EXTT11=
EXTT12=
EXTT13=
EXTT14=
EXTT15=
EXTT16=
EXTT17=
EXTT18=
EXTT19=
EXTT20=
EXTT21=
EXTT22=
EXTT23=
EXTT24=
EXTT25=
EXTT26=
EXTT27=
EXTT28=
EXTT29=
EXTT30=
EXTT31=
EXTT32=
EXTT33=
EXTT34=
EXTT35=
EXTT36=
PLAYORDER=
